<svg xmlns="http://www.w3.org/2000/svg" width="512" height="512" viewBox="0 0 512 512">
  <title>Singh360 component symbol</title>
  <rect width="100%" height="100%" fill="none"/>
<g stroke="#111" stroke-width="8" fill="#f4f4f4"><rect x="72" y="122" width="368" height="54" rx="4"/><rect x="90.0" y="136" width="8" height="18" fill="#fff" stroke="#111" stroke-width="3"/><rect x="103.2" y="136" width="8" height="18" fill="#fff" stroke="#111" stroke-width="3"/><rect x="116.4" y="136" width="8" height="18" fill="#fff" stroke="#111" stroke-width="3"/><rect x="129.6" y="136" width="8" height="18" fill="#fff" stroke="#111" stroke-width="3"/><rect x="142.8" y="136" width="8" height="18" fill="#fff" stroke="#111" stroke-width="3"/><rect x="156.0" y="136" width="8" height="18" fill="#fff" stroke="#111" stroke-width="3"/><rect x="169.2" y="136" width="8" height="18" fill="#fff" stroke="#111" stroke-width="3"/><rect x="182.39999999999998" y="136" width="8" height="18" fill="#fff" stroke="#111" stroke-width="3"/><rect x="195.6" y="136" width="8" height="18" fill="#fff" stroke="#111" stroke-width="3"/><rect x="208.8" y="136" width="8" height="18" fill="#fff" stroke="#111" stroke-width="3"/><rect x="222.0" y="136" width="8" height="18" fill="#fff" stroke="#111" stroke-width="3"/><rect x="235.2" y="136" width="8" height="18" fill="#fff" stroke="#111" stroke-width="3"/><rect x="248.39999999999998" y="136" width="8" height="18" fill="#fff" stroke="#111" stroke-width="3"/><rect x="261.6" y="136" width="8" height="18" fill="#fff" stroke="#111" stroke-width="3"/><rect x="274.79999999999995" y="136" width="8" height="18" fill="#fff" stroke="#111" stroke-width="3"/><rect x="288.0" y="136" width="8" height="18" fill="#fff" stroke="#111" stroke-width="3"/><rect x="301.2" y="136" width="8" height="18" fill="#fff" stroke="#111" stroke-width="3"/><rect x="314.4" y="136" width="8" height="18" fill="#fff" stroke="#111" stroke-width="3"/><rect x="327.6" y="136" width="8" height="18" fill="#fff" stroke="#111" stroke-width="3"/><rect x="340.79999999999995" y="136" width="8" height="18" fill="#fff" stroke="#111" stroke-width="3"/><rect x="354.0" y="136" width="8" height="18" fill="#fff" stroke="#111" stroke-width="3"/><rect x="367.2" y="136" width="8" height="18" fill="#fff" stroke="#111" stroke-width="3"/><rect x="380.4" y="136" width="8" height="18" fill="#fff" stroke="#111" stroke-width="3"/><rect x="393.59999999999997" y="136" width="8" height="18" fill="#fff" stroke="#111" stroke-width="3"/><circle cx="410" cy="149" r="10" fill="#333"/></g>
</svg>
