<svg xmlns="http://www.w3.org/2000/svg" width="512" height="512" viewBox="0 0 512 512">
  <title>EVAP Fan</title>
  <rect width="512" height="512" fill="none"/>

  <circle cx="256" cy="256" r="188" fill="#ffffff" stroke="#111" stroke-width="18"/>
  <path d="M256 250 C300 168 360 166 378 210 C332 252 292 270 256 256 Z" fill="#ffffff" stroke="#111" stroke-width="8" transform="rotate(0.0 256 256)"/>
  <path d="M256 250 C300 168 360 166 378 210 C332 252 292 270 256 256 Z" fill="#ffffff" stroke="#111" stroke-width="8" transform="rotate(90.0 256 256)"/>
  <path d="M256 250 C300 168 360 166 378 210 C332 252 292 270 256 256 Z" fill="#ffffff" stroke="#111" stroke-width="8" transform="rotate(180.0 256 256)"/>
  <path d="M256 250 C300 168 360 166 378 210 C332 252 292 270 256 256 Z" fill="#ffffff" stroke="#111" stroke-width="8" transform="rotate(270.0 256 256)"/>
  <circle cx="256" cy="256" r="34" fill="#111"/>
  <text x="256" y="468" text-anchor="middle" font-family="Arial" font-size="46" font-weight="800" fill="#111">EVAP FAN</text>

</svg>
